<?xml version="1.0" encoding="UTF-8" standalone="no"?>
<svg
   xmlns:dc="http://purl.org/dc/elements/1.1/"
   xmlns:cc="http://creativecommons.org/ns#"
   xmlns:rdf="http://www.w3.org/1999/02/22-rdf-syntax-ns#"
   xmlns:svg="http://www.w3.org/2000/svg"
   xmlns="http://www.w3.org/2000/svg"
   xmlns:sodipodi="http://sodipodi.sourceforge.net/DTD/sodipodi-0.dtd"
   xmlns:inkscape="http://www.inkscape.org/namespaces/inkscape"
   version="1.1"
   id="Layer_1"
   x="0px"
   y="0px"
   viewBox="0 0 96 96"
   enable-background="new 0 0 96 96"
   xml:space="preserve"
   sodipodi:docname="arrow-up.svg"
   inkscape:version="1.0.1 (3bc2e813f5, 2020-09-07)"><metadata
   id="metadata9"><rdf:RDF><cc:Work
       rdf:about=""><dc:format>image/svg+xml</dc:format><dc:type
         rdf:resource="http://purl.org/dc/dcmitype/StillImage" /><dc:title></dc:title></cc:Work></rdf:RDF></metadata><defs
   id="defs7" /><sodipodi:namedview
   pagecolor="#ffffff"
   bordercolor="#666666"
   borderopacity="1"
   objecttolerance="10"
   gridtolerance="10"
   guidetolerance="10"
   inkscape:pageopacity="0"
   inkscape:pageshadow="2"
   inkscape:window-width="2634"
   inkscape:window-height="1295"
   id="namedview5"
   showgrid="false"
   inkscape:zoom="9.8854167"
   inkscape:cx="48"
   inkscape:cy="48"
   inkscape:window-x="0"
   inkscape:window-y="0"
   inkscape:window-maximized="0"
   inkscape:current-layer="Layer_1" />
<path
   d="m 7.2128024,50.2 2.7999996,2.7 c 1.6,1.5 4.1,1.5 5.7,0 l 26.3,-25.8 v 61 c 0,1.1 0.9,2 2,2 h 8 c 1.1,0 2,-0.9 2,-2 V 26.9 l 26.3,25.9 c 1.6,1.5 4.1,1.5 5.7,0 l 2.8,-2.8 c 1.6,-1.5 1.6,-4 0,-5.6 l -37.9,-37.2 c -1,-0.9 -1.9,-1.2 -2.9,-1.2 -1.3,0 -1.8,0.2 -2.8,1.1 L 7.1128024,44.5 c -1.5,1.6 -1.5,4.1 0.1,5.7 z"
   id="path2" />
</svg>
