<?xml version="1.0" encoding="UTF-8" standalone="no"?>
<svg
   xmlns:dc="http://purl.org/dc/elements/1.1/"
   xmlns:cc="http://creativecommons.org/ns#"
   xmlns:rdf="http://www.w3.org/1999/02/22-rdf-syntax-ns#"
   xmlns:svg="http://www.w3.org/2000/svg"
   xmlns="http://www.w3.org/2000/svg"
   xmlns:sodipodi="http://sodipodi.sourceforge.net/DTD/sodipodi-0.dtd"
   xmlns:inkscape="http://www.inkscape.org/namespaces/inkscape"
   version="1.1"
   id="Capa_1"
   x="0px"
   y="0px"
   viewBox="0 0 611.999 611.999"
   style="enable-background:new 0 0 611.999 611.999;"
   xml:space="preserve"
   sodipodi:docname="monitor.svg"
   inkscape:version="1.0.1 (3bc2e813f5, 2020-09-07)"><metadata
   id="metadata47"><rdf:RDF><cc:Work
       rdf:about=""><dc:format>image/svg+xml</dc:format><dc:type
         rdf:resource="http://purl.org/dc/dcmitype/StillImage" /></cc:Work></rdf:RDF></metadata><defs
   id="defs45" /><sodipodi:namedview
   pagecolor="#ffffff"
   bordercolor="#666666"
   borderopacity="1"
   objecttolerance="10"
   gridtolerance="10"
   guidetolerance="10"
   inkscape:pageopacity="0"
   inkscape:pageshadow="2"
   inkscape:window-width="3349"
   inkscape:window-height="1340"
   id="namedview43"
   showgrid="false"
   inkscape:zoom="1.5506561"
   inkscape:cx="305.99951"
   inkscape:cy="305.99951"
   inkscape:window-x="0"
   inkscape:window-y="0"
   inkscape:window-maximized="0"
   inkscape:current-layer="Capa_1" />
<g
   id="g10"
   style="fill:#0066ff">
	<g
   id="g8"
   style="fill:#0066ff">
		<g
   id="g6"
   style="fill:#0066ff">
			<path
   d="M570.107,500.254c-65.037-29.371-67.511-155.441-67.559-158.622v-84.578c0-81.402-49.742-151.399-120.427-181.203     C381.969,34,347.883,0,306.001,0c-41.883,0-75.968,34.002-76.121,75.849c-70.682,29.804-120.425,99.801-120.425,181.203v84.578     c-0.046,3.181-2.522,129.251-67.561,158.622c-7.409,3.347-11.481,11.412-9.768,19.36c1.711,7.949,8.74,13.626,16.871,13.626     h164.88c3.38,18.594,12.172,35.892,25.619,49.903c17.86,18.608,41.479,28.856,66.502,28.856     c25.025,0,48.644-10.248,66.502-28.856c13.449-14.012,22.241-31.311,25.619-49.903h164.88c8.131,0,15.159-5.676,16.872-13.626     C581.586,511.664,577.516,503.6,570.107,500.254z M484.434,439.859c6.837,20.728,16.518,41.544,30.246,58.866H97.32     c13.726-17.32,23.407-38.135,30.244-58.866H484.434z M306.001,34.515c18.945,0,34.963,12.73,39.975,30.082     c-12.912-2.678-26.282-4.09-39.975-4.09s-27.063,1.411-39.975,4.09C271.039,47.246,287.057,34.515,306.001,34.515z      M143.97,341.736v-84.685c0-89.343,72.686-162.029,162.031-162.029s162.031,72.686,162.031,162.029v84.826     c0.023,2.596,0.427,29.879,7.303,63.465H136.663C143.543,371.724,143.949,344.393,143.97,341.736z M306.001,577.485     c-26.341,0-49.33-18.992-56.709-44.246h113.416C355.329,558.493,332.344,577.485,306.001,577.485z"
   id="path2"
   style="fill:#0066ff" />
			<path
   d="M306.001,119.235c-74.25,0-134.657,60.405-134.657,134.654c0,9.531,7.727,17.258,17.258,17.258     c9.531,0,17.258-7.727,17.258-17.258c0-55.217,44.923-100.139,100.142-100.139c9.531,0,17.258-7.727,17.258-17.258     C323.259,126.96,315.532,119.235,306.001,119.235z"
   id="path4"
   style="fill:#0066ff" />
		</g>
	</g>
</g>
<g
   id="g12">
</g>
<g
   id="g14">
</g>
<g
   id="g16">
</g>
<g
   id="g18">
</g>
<g
   id="g20">
</g>
<g
   id="g22">
</g>
<g
   id="g24">
</g>
<g
   id="g26">
</g>
<g
   id="g28">
</g>
<g
   id="g30">
</g>
<g
   id="g32">
</g>
<g
   id="g34">
</g>
<g
   id="g36">
</g>
<g
   id="g38">
</g>
<g
   id="g40">
</g>
</svg>
