<?xml version="1.0" encoding="UTF-8" standalone="no"?>
<svg
   width="36px"
   height="40px"
   viewBox="0 0 36 40"
   version="1.1"
   id="svg15388"
   sodipodi:docname="role.svg"
   inkscape:version="1.1 (c4e8f9ed74, 2021-05-24)"
   xmlns:inkscape="http://www.inkscape.org/namespaces/inkscape"
   xmlns:sodipodi="http://sodipodi.sourceforge.net/DTD/sodipodi-0.dtd"
   xmlns="http://www.w3.org/2000/svg"
   xmlns:svg="http://www.w3.org/2000/svg"
   xmlns:rdf="http://www.w3.org/1999/02/22-rdf-syntax-ns#"
   xmlns:cc="http://creativecommons.org/ns#"
   xmlns:dc="http://purl.org/dc/elements/1.1/"
   xmlns:sketch="http://www.bohemiancoding.com/sketch/ns">
  <sodipodi:namedview
     id="namedview15390"
     pagecolor="#ffffff"
     bordercolor="#666666"
     borderopacity="1.0"
     inkscape:pageshadow="2"
     inkscape:pageopacity="0.0"
     inkscape:pagecheckerboard="0"
     showgrid="false"
     inkscape:zoom="17.05"
     inkscape:cx="17.97654"
     inkscape:cy="20"
     inkscape:window-width="3840"
     inkscape:window-height="2086"
     inkscape:window-x="0"
     inkscape:window-y="74"
     inkscape:window-maximized="1"
     inkscape:current-layer="svg15388" />
  <!-- Generator: Sketch 3.1.1 (8761) - http://www.bohemiancoding.com/sketch -->
  <title
     id="title15379">LOCK</title>
  <desc
     id="desc15381">Created with Sketch.</desc>
  <defs
     id="defs15383" />
  <g
     id="Page-1"
     stroke="none"
     stroke-width="1"
     fill="none"
     fill-rule="evenodd"
     sketch:type="MSPage"
     style="fill:#1a1a1a;stroke:#00ffff">
    <g
       id="Icons"
       sketch:type="MSArtboardGroup"
       transform="translate(-82.000000, -400.000000)"
       fill="#595C60"
       style="fill:#1a1a1a;stroke:#00ffff">
      <path
         d="M98,424 L102,424 L102,430 L98,430 L98,424 Z M112,416 L112,412 C112,405.383 106.617,400 100,400 C93.383,400 88,405.383 88,412 L88,420 L106,420 L106,416 L92,416 L92,412 C92,407.589 95.589,404 100,404 C104.411,404 108,407.589 108,412 L108,420 L114,420 L114,436 L86,436 L86,416 L82,416 L82,440 L118,440 L118,416 L112,416 L112,416 Z"
         id="LOCK"
         sketch:type="MSShapeGroup"
         style="fill:#1a1a1a;stroke:#00ffff" />
    </g>
  </g>
  <metadata
     id="metadata15392">
    <rdf:RDF>
      <cc:Work
         rdf:about="">
        <dc:title>LOCK</dc:title>
      </cc:Work>
    </rdf:RDF>
  </metadata>
</svg>
