<?xml version="1.0" encoding="UTF-8" standalone="no"?>
<svg
   id="Layer_1"
   data-name="Layer 1"
   viewBox="0 0 96 96"
   version="1.1"
   sodipodi:docname="webhook.svg"
   inkscape:version="1.1 (c4e8f9ed74, 2021-05-24)"
   xmlns:inkscape="http://www.inkscape.org/namespaces/inkscape"
   xmlns:sodipodi="http://sodipodi.sourceforge.net/DTD/sodipodi-0.dtd"
   xmlns="http://www.w3.org/2000/svg"
   xmlns:svg="http://www.w3.org/2000/svg"
   xmlns:rdf="http://www.w3.org/1999/02/22-rdf-syntax-ns#"
   xmlns:cc="http://creativecommons.org/ns#"
   xmlns:dc="http://purl.org/dc/elements/1.1/">
  <defs
     id="defs5483" />
  <sodipodi:namedview
     id="namedview5481"
     pagecolor="#ffffff"
     bordercolor="#666666"
     borderopacity="1.0"
     inkscape:pageshadow="2"
     inkscape:pageopacity="0.0"
     inkscape:pagecheckerboard="0"
     showgrid="false"
     inkscape:zoom="7.1041667"
     inkscape:cx="47.929619"
     inkscape:cy="48"
     inkscape:window-width="3840"
     inkscape:window-height="2086"
     inkscape:window-x="0"
     inkscape:window-y="74"
     inkscape:window-maximized="1"
     inkscape:current-layer="Layer_1" />
  <title
     id="title5472">webhook</title>
  <path
     d="M92.29,65.78A19.56,19.56,0,0,0,68.85,54L55.26,29a9.47,9.47,0,1,0-7.08,3.36L65,63.31a1,1,0,0,0,1.36.4l2.26-1.24,0,0,.72-.35a11.74,11.74,0,1,1-5.66,16.19L56.75,82l.51.9a19.56,19.56,0,0,0,35-17.11Z"
     id="path5474"
     style="stroke:#00ffff" />
  <path
     d="M54.93,4.81A19.56,19.56,0,0,0,35.35,38L22.27,63.41a9.49,9.49,0,1,0,9.25,9.11,9,9,0,0,0-2.18-5.76L45.18,36a1,1,0,0,0-.43-1.35l-2.29-1.18v0l-.69-.4a11.74,11.74,0,0,1-4.21-15.34A11.74,11.74,0,0,1,58.74,27.83a1,1,0,0,0,.46,1.25l6,3.23.47-.93A19.57,19.57,0,0,0,54.93,4.81Z"
     fill-rule="evenodd"
     id="path5476"
     style="stroke:#00ffff" />
  <path
     d="M78.54,64.6a9.6,9.6,0,0,0-10.07.49,9.11,9.11,0,0,0-3.4,4.24l-30.39.1a1,1,0,0,0-1,1V73h0l0,.81A11.73,11.73,0,0,1,21.94,84.61a11.74,11.74,0,0,1-.77-23.45,1,1,0,0,0,.91-1l.08-6.86h-1A19.56,19.56,0,1,0,41,77.24l24.45-.08A9.47,9.47,0,1,0,78.54,64.6Z"
     id="path5478"
     style="stroke:#00ffff" />
  <metadata
     id="metadata5485">
    <rdf:RDF>
      <cc:Work
         rdf:about="">
        <dc:title>webhook</dc:title>
      </cc:Work>
    </rdf:RDF>
  </metadata>
</svg>
